<?xml version="1.0" encoding="utf-8"?>
<!-- Generator: Adobe Illustrator 24.2.0, SVG Export Plug-In . SVG Version: 6.00 Build 0)  -->
<svg version="1.1" id="Layer_1" xmlns="http://www.w3.org/2000/svg" xmlns:xlink="http://www.w3.org/1999/xlink" x="0px" y="0px"
	 viewBox="0 0 750 750" style="enable-background:new 0 0 750 750;" xml:space="preserve">
<style type="text/css">
	.st0{fill:#2ABAFF;}
	.st1{fill:#63FF4A;}
</style>
<g id="Layer_2_1_">
	<rect width="750" height="750"/>
	<path class="st0" d="M198.4,227.8c0,0,30.7-18.5,73.8-19.2c0,0,81.5-57.8,187.3-16.7c0,0,21.8,10.2,57.9,4.6
		C517.2,196.3,354.9,63.5,198.4,227.8z"/>
	<path class="st0" d="M286.6,214.5c0,0-110.9,7.5-140.3,58.4c0,0-31.1,43.3,15.7,87.4c0,0-34.3-66.7,16.1-90.5
		c0,0,31.8-19.6,59.2-27.5L286.6,214.5z"/>
	<path class="st1" d="M239.5,246.8c0,0,4.3,52.6-71,125.8c0,0-52.3,58-20.2,110.6c0,0,14.3,25,50.6,47c0,0-59.6-48.8-37.1-98.3
		c0,0-2.3-15.3,55.8-75.7C217.5,356.1,255.9,311.8,239.5,246.8z"/>
	<path class="st1" d="M237.3,518.7c0,0,0.9,44,24,52.9c0,0,25.9,22.8,115.3,24.6c33,0.7,65.9-4.9,96.8-16.6
		c12.1-4.6,24.3-9.7,33.6-15c0,0,10.4-3.2,27.7-45.4C547.8,508.4,377.6,648.2,237.3,518.7z"/>
	<polygon class="st0" points="210.2,261 202.8,263.6 226.2,272.4 227.4,267.7 	"/>
	<polygon class="st0" points="175.8,280.2 171.8,284.6 213.3,299.8 216,295.1 	"/>
	<polygon class="st0" points="160.4,304.1 159.4,309.3 198.6,323.6 201.7,319.3 	"/>
	<polygon class="st0" points="184.7,342.3 181.1,346.8 162.9,340.1 162.3,334 	"/>
	<path class="st0" d="M209.1,377.7c0,0,33.6,39.6,5.8,123.1c0,0-31,86.2,77.8,93.3c0,0-89.9-14.6-53.1-107.1
		C239.4,487.1,258.5,417.8,209.1,377.7z"/>
	<polygon class="st1" points="179.3,411.4 177.5,416.7 217,423.9 216.2,418.1 	"/>
	<polygon class="st1" points="168.6,438.7 167.5,444.4 217.5,453.2 217.8,447.6 	"/>
	<polygon class="st1" points="167.7,465.4 169.3,471.5 209.8,478.9 212.9,473.6 	"/>
	<polygon class="st1" points="179.6,494.6 183.1,501 205.5,505 206.4,499.5 	"/>
</g>
</svg>
